<svg width="14" height="12" viewBox="0 0 14 12" fill="none" xmlns="http://www.w3.org/2000/svg">
<path d="M2.38 0.999997L2.605 1.445L2.88 2H5V4.5H1V0.999997H2.38ZM2.69 -3.1468e-06H0.5C0.367392 -3.1468e-06 0.240215 0.0526754 0.146447 0.146444C0.0526784 0.240212 0 0.367389 0 0.499997V5C0 5.13261 0.0526784 5.25978 0.146447 5.35355C0.240215 5.44732 0.367392 5.5 0.5 5.5H5.5C5.63261 5.5 5.75979 5.44732 5.85355 5.35355C5.94732 5.25978 6 5.13261 6 5V1.5C6 1.36739 5.94732 1.24021 5.85355 1.14644C5.75979 1.05268 5.63261 0.999997 5.5 0.999997H3.5L3.14 0.274997C3.09807 0.191779 3.03372 0.121935 2.9542 0.0733439C2.87469 0.0247528 2.78318 -0.000651641 2.69 -3.1468e-06Z" fill="black"/>
<path d="M10.38 0.999997L10.605 1.445L10.88 2H13V4.5H9V0.999997H10.38ZM10.69 -3.1468e-06H8.5C8.36739 -3.1468e-06 8.24021 0.0526754 8.14645 0.146444C8.05268 0.240212 8 0.367389 8 0.499997V5C8 5.13261 8.05268 5.25978 8.14645 5.35355C8.24021 5.44732 8.36739 5.5 8.5 5.5H13.5C13.6326 5.5 13.7598 5.44732 13.8536 5.35355C13.9473 5.25978 14 5.13261 14 5V1.5C14 1.36739 13.9473 1.24021 13.8536 1.14644C13.7598 1.05268 13.6326 0.999997 13.5 0.999997H11.5L11.14 0.274997C11.0981 0.191779 11.0337 0.121935 10.9542 0.0733439C10.8747 0.0247528 10.7832 -0.000651641 10.69 -3.1468e-06Z" fill="black"/>
<path d="M2.38 7.5L2.605 7.945L2.88 8.5H5V11H1V7.5H2.38ZM2.69 6.5H0.5C0.367392 6.5 0.240215 6.55267 0.146447 6.64644C0.0526784 6.74021 0 6.86739 0 7V11.5C0 11.6326 0.0526784 11.7598 0.146447 11.8536C0.240215 11.9473 0.367392 12 0.5 12H5.5C5.63261 12 5.75979 11.9473 5.85355 11.8536C5.94732 11.7598 6 11.6326 6 11.5V8C6 7.86739 5.94732 7.74021 5.85355 7.64644C5.75979 7.55267 5.63261 7.5 5.5 7.5H3.5L3.14 6.775C3.09807 6.69178 3.03372 6.62194 2.9542 6.57334C2.87469 6.52475 2.78318 6.49935 2.69 6.5Z" fill="black"/>
<path d="M10.38 7.5L10.605 7.945L10.88 8.5H13V11H9V7.5H10.38ZM10.69 6.5H8.5C8.36739 6.5 8.24021 6.55267 8.14645 6.64644C8.05268 6.74021 8 6.86739 8 7V11.5C8 11.6326 8.05268 11.7598 8.14645 11.8536C8.24021 11.9473 8.36739 12 8.5 12H13.5C13.6326 12 13.7598 11.9473 13.8536 11.8536C13.9473 11.7598 14 11.6326 14 11.5V8C14 7.86739 13.9473 7.74021 13.8536 7.64644C13.7598 7.55267 13.6326 7.5 13.5 7.5H11.5L11.14 6.775C11.0981 6.69178 11.0337 6.62194 10.9542 6.57334C10.8747 6.52475 10.7832 6.49935 10.69 6.5Z" fill="black"/>
</svg>
