<svg width="16" height="16" viewBox="0 0 16 16" fill="none" xmlns="http://www.w3.org/2000/svg">
<path d="M0 11.815L1.3515 14.151C1.48588 14.4185 1.69191 14.6434 1.94661 14.8006C2.20131 14.9578 2.49468 15.0412 2.794 15.0415H11.7655L9.9035 11.815H0ZM16 11.8305C15.9993 11.5202 15.9098 11.2166 15.742 10.9555L10.484 1.81751C10.3469 1.55792 10.1416 1.34068 9.89009 1.18921C9.63861 1.03775 9.35056 0.957805 9.057 0.958008H6.2785L14.3985 15.0255L15.68 12.8095C15.93 12.385 16.0005 12.1975 16.0005 11.8305H16ZM8.5805 9.52351L4.953 3.23951L1.323 9.52351H8.5805Z" fill="#9D9D9D"/>
</svg>
