<svg width="30" height="31" viewBox="0 0 30 31" fill="none" xmlns="http://www.w3.org/2000/svg">
<rect x="0.5" y="0.5" width="29" height="30" rx="7.5" fill="#FBFBFB" stroke="#DADADA"/>
<path d="M21.4853 10.4363C21.7592 10.1597 22.1315 10.0029 22.5208 10C22.9101 9.99717 23.2847 10.1485 23.5627 10.421C23.8407 10.6935 23.9996 11.0649 24.0045 11.4542C24.0095 11.8434 23.8602 12.2188 23.5893 12.4983L15.7493 22.2993C15.6146 22.4443 15.452 22.5607 15.2714 22.6415C15.0907 22.7223 14.8956 22.7659 14.6978 22.7696C14.4999 22.7733 14.3033 22.7372 14.1197 22.6632C13.9361 22.5893 13.7693 22.4791 13.6293 22.3393L8.43126 17.1433C8.15503 16.8669 7.99991 16.4922 8 16.1014C8.00009 15.7107 8.1554 15.336 8.43176 15.0598C8.70811 14.7836 9.08288 14.6284 9.47361 14.6285C9.86434 14.6286 10.239 14.7839 10.5153 15.0603L14.6263 19.1723L21.4463 10.4823C21.4586 10.4665 21.472 10.4514 21.4863 10.4373L21.4853 10.4363Z" fill="black"/>
</svg>
