<svg width="17" height="13" viewBox="0 0 17 13" fill="none" xmlns="http://www.w3.org/2000/svg">
<path d="M13.4853 0.436286C13.7592 0.159748 14.1315 0.0029073 14.5208 4.00118e-05C14.9101 -0.00282727 15.2847 0.148512 15.5627 0.420985C15.8407 0.693457 15.9996 1.0649 16.0045 1.45415C16.0095 1.8434 15.8602 2.21879 15.5893 2.49829L7.74926 12.2993C7.61457 12.4443 7.45205 12.5607 7.27138 12.6415C7.09072 12.7223 6.89563 12.7659 6.69775 12.7696C6.49988 12.7733 6.30328 12.7372 6.1197 12.6632C5.93612 12.5893 5.76932 12.4791 5.62926 12.3393L0.431257 7.14329C0.155034 6.86693 -9.37257e-05 6.49217 4.24844e-08 6.10143C9.38107e-05 5.7107 0.155401 5.33601 0.431757 5.05979C0.708113 4.78356 1.08288 4.62844 1.47361 4.62853C1.86434 4.62862 2.23903 4.78393 2.51526 5.06029L6.62626 9.17229L13.4463 0.482286C13.4586 0.466474 13.472 0.451445 13.4863 0.437287L13.4853 0.436286Z" fill="black"/>
</svg>
