<svg width="21" height="14" viewBox="0 0 21 14" fill="none" xmlns="http://www.w3.org/2000/svg">
<path d="M12.9994 8.34294e-07C14.8357 -0.000895094 16.5989 0.719828 17.9087 2.0068C19.2186 3.29378 19.9703 5.04393 20.0018 6.87998C20.0333 8.71603 19.342 10.4909 18.0771 11.8221C16.8121 13.1532 15.0747 13.9339 13.2394 13.996L12.9994 14H7.00342C5.1671 14.0009 3.40396 13.2802 2.09409 11.9932C0.784215 10.7062 0.0325143 8.95607 0.00103019 7.12002C-0.030454 5.28397 0.6608 3.50907 1.92578 2.17794C3.19076 0.846814 4.92815 0.0660646 6.76342 0.00400102L7.00242 8.34294e-07H12.9984H12.9994ZM12.9994 1.5H7.00342C5.56186 1.49696 4.17674 2.06001 3.14615 3.06797C2.11556 4.07592 1.5219 5.4482 1.49293 6.88947C1.46396 8.33074 2.00201 9.72577 2.99126 10.7743C3.98052 11.8229 5.3419 12.4411 6.78242 12.496L7.00342 12.5H12.9994C14.441 12.503 15.8261 11.94 16.8567 10.932C17.8873 9.92408 18.4809 8.5518 18.5099 7.11053C18.5389 5.66926 18.0008 4.27424 17.0116 3.22568C16.0223 2.17713 14.6609 1.55889 13.2204 1.504L12.9994 1.5ZM6.00142 4C6.20033 4 6.39109 4.07902 6.53175 4.21967C6.6724 4.36032 6.75142 4.55109 6.75142 4.75V6.248H8.25142C8.45033 6.248 8.64109 6.32702 8.78175 6.46767C8.9224 6.60832 9.00142 6.79909 9.00142 6.998C9.00142 7.19691 8.9224 7.38768 8.78175 7.52833C8.64109 7.66898 8.45033 7.748 8.25142 7.748H6.75142V9.25C6.75142 9.44891 6.6724 9.63968 6.53175 9.78033C6.39109 9.92098 6.20033 10 6.00142 10C5.8025 10 5.61174 9.92098 5.47109 9.78033C5.33043 9.63968 5.25142 9.44891 5.25142 9.25V7.748H3.75142C3.65293 7.748 3.5554 7.7286 3.4644 7.69091C3.37341 7.65322 3.29073 7.59797 3.22109 7.52833C3.15144 7.45869 3.0962 7.37601 3.05851 7.28501C3.02082 7.19402 3.00142 7.09649 3.00142 6.998C3.00142 6.89951 3.02082 6.80198 3.05851 6.71099C3.0962 6.61999 3.15144 6.53731 3.22109 6.46767C3.29073 6.39803 3.37341 6.34278 3.4644 6.30509C3.5554 6.2674 3.65293 6.248 3.75142 6.248H5.25142V4.75C5.25142 4.55109 5.33043 4.36032 5.47109 4.21967C5.61174 4.07902 5.8025 4 6.00142 4ZM12.7514 7.5C13.0829 7.5 13.4009 7.6317 13.6353 7.86612C13.8697 8.10054 14.0014 8.41848 14.0014 8.75C14.0014 9.08152 13.8697 9.39946 13.6353 9.63388C13.4009 9.86831 13.0829 10 12.7514 10C12.4199 10 12.102 9.86831 11.8675 9.63388C11.6331 9.39946 11.5014 9.08152 11.5014 8.75C11.5014 8.41848 11.6331 8.10054 11.8675 7.86612C12.102 7.6317 12.4199 7.5 12.7514 7.5ZM14.7514 4C15.0829 4 15.4009 4.1317 15.6353 4.36612C15.8697 4.60054 16.0014 4.91848 16.0014 5.25C16.0014 5.58152 15.8697 5.89946 15.6353 6.13388C15.4009 6.3683 15.0829 6.5 14.7514 6.5C14.4199 6.5 14.102 6.3683 13.8675 6.13388C13.6331 5.89946 13.5014 5.58152 13.5014 5.25C13.5014 4.91848 13.6331 4.60054 13.8675 4.36612C14.102 4.1317 14.4199 4 14.7514 4Z" fill="#9D9D9D"/>
</svg>
