<svg width="61" height="61" viewBox="0 0 61 61" fill="none" xmlns="http://www.w3.org/2000/svg">
<path d="M30.503 61C26.3863 61 22.3887 60.1958 18.6295 58.6053C14.9953 57.0684 11.7365 54.8643 8.93642 52.0645C6.13634 49.2646 3.93202 46.0062 2.39496 42.3724C0.804278 38.6135 0 34.6163 0 30.5C0 29.3146 0.959176 28.3555 2.14474 28.3555C3.33031 28.3555 4.28948 29.3146 4.28948 30.5C4.28948 34.0385 4.98056 37.4697 6.35082 40.7044C7.67341 43.8259 9.56197 46.6316 11.9688 49.0383C14.3757 51.4449 17.1818 53.3393 20.3035 54.6558C23.5326 56.0199 26.9642 56.7109 30.503 56.7109C34.0418 56.7109 37.4734 56.0199 40.7084 54.6498C43.8302 53.3273 46.6362 51.439 49.0431 49.0323C51.4499 46.6257 53.3445 43.8199 54.6611 40.6984C56.0254 37.4697 56.7165 34.0385 56.7165 30.5C56.7165 26.9615 56.0254 23.5303 54.6551 20.2956C53.337 17.1816 51.4294 14.3517 49.0371 11.9617C46.6495 9.5665 43.8187 7.65857 40.7024 6.34424C37.4734 4.98008 34.0418 4.28906 30.503 4.28906C29.3174 4.28906 28.3582 3.32998 28.3582 2.14453C28.3582 0.959082 29.3174 0 30.503 0C34.6197 0 38.6172 0.804199 42.3765 2.39473C46.0106 3.93164 49.2695 6.13574 52.0695 8.93555C54.8696 11.7354 57.068 14.9998 58.605 18.6276C60.1957 22.3865 61 26.3837 61 30.5C61 34.6163 60.1957 38.6135 58.605 42.3724C57.0739 46.0062 54.8696 49.2646 52.0695 52.0645C49.2695 54.8643 46.0047 57.0624 42.3765 58.5993C38.6172 60.1958 34.6197 61 30.503 61Z" fill="black"/>
</svg>
