<svg width="14" height="14" viewBox="0 0 14 14" fill="none" xmlns="http://www.w3.org/2000/svg">
<path d="M5 12C5 13.105 3.88 14 2.5 14C1.12 14 0 13.105 0 12C0 10.896 1.12 10 2.5 10C3.88 10 5 10.896 5 12ZM14 10C14 11.105 12.88 12 11.5 12C10.12 12 9 11.105 9 10C9 8.895 10.12 8 11.5 8C12.88 8 14 8.895 14 10Z" fill="#9D9D9D"/>
<path fill-rule="evenodd" clip-rule="evenodd" d="M13 10V1H14V10H13ZM5 2V12H4V2H5Z" fill="#9D9D9D"/>
<path d="M4 1.90499C4 1.65709 4.09208 1.41802 4.25838 1.23416C4.42468 1.05031 4.65334 0.934784 4.9 0.909993L12.9 0.109993C13.0391 0.0960175 13.1795 0.111344 13.3123 0.154986C13.445 0.198627 13.5672 0.269613 13.6708 0.363365C13.7745 0.457117 13.8573 0.571553 13.914 0.699292C13.9707 0.827032 14 0.965237 14 1.10499V1.99999L4 2.99999V1.90499Z" fill="#9D9D9D"/>
</svg>
