<svg width="9" height="14" viewBox="0 0 9 14" fill="none" xmlns="http://www.w3.org/2000/svg">
<path d="M3.0498 9.07129C3.0498 8.25098 3.14941 7.59766 3.34863 7.11133C3.54785 6.625 3.91113 6.14746 4.43848 5.67871C4.97168 5.2041 5.32617 4.82031 5.50195 4.52734C5.67773 4.22852 5.76562 3.91504 5.76562 3.58691C5.76562 2.59668 5.30859 2.10156 4.39453 2.10156C3.96094 2.10156 3.6123 2.23633 3.34863 2.50586C3.09082 2.76953 2.95605 3.13574 2.94434 3.60449H0.395508C0.407227 2.48535 0.767578 1.60938 1.47656 0.976562C2.19141 0.34375 3.16406 0.0273438 4.39453 0.0273438C5.63672 0.0273438 6.60059 0.329102 7.28613 0.932617C7.97168 1.53027 8.31445 2.37695 8.31445 3.47266C8.31445 3.9707 8.20312 4.44238 7.98047 4.8877C7.75781 5.32715 7.36816 5.81641 6.81152 6.35547L6.09961 7.03223C5.6543 7.45996 5.39941 7.96094 5.33496 8.53516L5.2998 9.07129H3.0498ZM2.79492 11.7695C2.79492 11.377 2.92676 11.0547 3.19043 10.8027C3.45996 10.5449 3.80273 10.416 4.21875 10.416C4.63477 10.416 4.97461 10.5449 5.23828 10.8027C5.50781 11.0547 5.64258 11.377 5.64258 11.7695C5.64258 12.1562 5.51074 12.4756 5.24707 12.7275C4.98926 12.9795 4.64648 13.1055 4.21875 13.1055C3.79102 13.1055 3.44531 12.9795 3.18164 12.7275C2.92383 12.4756 2.79492 12.1562 2.79492 11.7695Z" fill="#B1B1B1"/>
</svg>
