<svg width="212" height="59" viewBox="0 0 212 59" fill="none" xmlns="http://www.w3.org/2000/svg">
<path d="M92.0879 51.5635C90.9622 51.2399 90.1419 50.8434 89.627 50.374C89.1165 49.9001 88.8613 49.3167 88.8613 48.624C88.8613 47.8402 89.1735 47.193 89.7979 46.6826C90.4268 46.1676 91.2425 45.9102 92.2451 45.9102C92.9287 45.9102 93.5371 46.0423 94.0703 46.3066C94.6081 46.571 95.0228 46.9355 95.3145 47.4004C95.6107 47.8652 95.7588 48.3734 95.7588 48.9248H94.4395C94.4395 48.3232 94.248 47.8516 93.8652 47.5098C93.4824 47.1634 92.9424 46.9902 92.2451 46.9902C91.598 46.9902 91.0921 47.1338 90.7275 47.4209C90.3675 47.7035 90.1875 48.0977 90.1875 48.6035C90.1875 49.0091 90.3584 49.3532 90.7002 49.6357C91.0465 49.9137 91.6322 50.1689 92.457 50.4014C93.2865 50.6338 93.9336 50.8913 94.3984 51.1738C94.8678 51.4518 95.2142 51.7777 95.4375 52.1514C95.6654 52.5251 95.7793 52.9648 95.7793 53.4707C95.7793 54.2773 95.4648 54.9245 94.8359 55.4121C94.207 55.8952 93.3662 56.1367 92.3135 56.1367C91.6299 56.1367 90.9919 56.0068 90.3994 55.7471C89.807 55.4827 89.349 55.1227 89.0254 54.667C88.7064 54.2113 88.5469 53.694 88.5469 53.1152H89.8662C89.8662 53.7168 90.0872 54.193 90.5293 54.5439C90.9759 54.8903 91.5706 55.0635 92.3135 55.0635C93.0062 55.0635 93.5371 54.9222 93.9062 54.6396C94.2754 54.3571 94.46 53.972 94.46 53.4844C94.46 52.9967 94.2891 52.6208 93.9473 52.3564C93.6055 52.0876 92.9857 51.8232 92.0879 51.5635ZM98.9854 46.8125V48.6035H100.366V49.5811H98.9854V54.168C98.9854 54.4642 99.0469 54.6875 99.1699 54.8379C99.293 54.9837 99.5026 55.0566 99.7988 55.0566C99.9447 55.0566 100.145 55.0293 100.4 54.9746V56C100.068 56.0911 99.7441 56.1367 99.4297 56.1367C98.8646 56.1367 98.4385 55.9658 98.1514 55.624C97.8643 55.2822 97.7207 54.7969 97.7207 54.168V49.5811H96.374V48.6035H97.7207V46.8125H98.9854ZM104.919 56.1367C103.916 56.1367 103.101 55.8086 102.472 55.1523C101.843 54.4915 101.528 53.6097 101.528 52.5068V52.2744C101.528 51.5407 101.667 50.8867 101.945 50.3125C102.228 49.7337 102.62 49.2826 103.121 48.959C103.627 48.6309 104.174 48.4668 104.762 48.4668C105.723 48.4668 106.471 48.7835 107.004 49.417C107.537 50.0505 107.804 50.9574 107.804 52.1377V52.6641H102.793C102.811 53.3932 103.023 53.9834 103.429 54.4346C103.839 54.8812 104.358 55.1045 104.987 55.1045C105.434 55.1045 105.812 55.0133 106.122 54.8311C106.432 54.6488 106.703 54.4072 106.936 54.1064L107.708 54.708C107.088 55.6605 106.159 56.1367 104.919 56.1367ZM104.762 49.5059C104.251 49.5059 103.823 49.6927 103.477 50.0664C103.13 50.4355 102.916 50.9551 102.834 51.625H106.539V51.5293C106.503 50.8867 106.329 50.39 106.02 50.0391C105.71 49.6836 105.29 49.5059 104.762 49.5059ZM115.521 52.3838C115.521 53.5094 115.264 54.4163 114.749 55.1045C114.234 55.7926 113.537 56.1367 112.657 56.1367C111.759 56.1367 111.053 55.8519 110.538 55.2822V58.8438H109.273V48.6035H110.429L110.49 49.4238C111.005 48.7858 111.721 48.4668 112.637 48.4668C113.525 48.4668 114.227 48.8018 114.742 49.4717C115.262 50.1416 115.521 51.0736 115.521 52.2676V52.3838ZM114.257 52.2402C114.257 51.4062 114.079 50.7477 113.724 50.2646C113.368 49.7816 112.881 49.54 112.261 49.54C111.495 49.54 110.921 49.8796 110.538 50.5586V54.0928C110.916 54.7673 111.495 55.1045 112.274 55.1045C112.881 55.1045 113.361 54.8652 113.717 54.3867C114.077 53.9036 114.257 53.1882 114.257 52.2402ZM126.999 56H120.478V55.0908L123.923 51.2627C124.433 50.6839 124.784 50.2145 124.976 49.8545C125.172 49.4899 125.27 49.1139 125.27 48.7266C125.27 48.207 125.112 47.7809 124.798 47.4482C124.483 47.1156 124.064 46.9492 123.54 46.9492C122.911 46.9492 122.421 47.1292 122.07 47.4893C121.724 47.8447 121.551 48.3415 121.551 48.9795H120.286C120.286 48.0635 120.58 47.3229 121.168 46.7578C121.76 46.1927 122.551 45.9102 123.54 45.9102C124.465 45.9102 125.197 46.154 125.734 46.6416C126.272 47.1247 126.541 47.7695 126.541 48.5762C126.541 49.556 125.917 50.7227 124.668 52.0762L122.002 54.9678H126.999V56Z" fill="#444444"/>
<line x1="119.632" y1="16.8684" x2="180.421" y2="16.8684" stroke="#E4E4E4"/>
<line x1="32.7896" y1="16.8684" x2="93.579" y2="16.8684" stroke="#E4E4E4"/>
<circle cx="104.5" cy="16.5" r="15.5" fill="white" stroke="black" stroke-width="2"/>
<circle cx="16.5" cy="16.5" r="16.5" fill="black"/>
<circle cx="195.184" cy="16.5" r="16" fill="white" stroke="#DEDEDE"/>
<path d="M20.485 11.4363C20.759 11.1597 21.1313 11.0029 21.5206 11C21.9098 10.9972 22.2844 11.1485 22.5624 11.421C22.8405 11.6935 22.9993 12.0649 23.0043 12.4542C23.0093 12.8434 22.86 13.2188 22.589 13.4983L14.749 23.2993C14.6143 23.4443 14.4518 23.5607 14.2711 23.6415C14.0905 23.7223 13.8954 23.7659 13.6975 23.7696C13.4996 23.7733 13.303 23.7372 13.1195 23.6632C12.9359 23.5893 12.7691 23.4791 12.629 23.3393L7.43101 18.1433C7.15479 17.8669 6.99966 17.4922 6.99976 17.1014C6.99985 16.7107 7.15516 16.336 7.43151 16.0598C7.70787 15.7836 8.08263 15.6284 8.47337 15.6285C8.8641 15.6286 9.23879 15.7839 9.51501 16.0603L13.626 20.1723L20.446 11.4823C20.4584 11.4665 20.4718 11.4514 20.486 11.4373L20.485 11.4363Z" fill="white"/>
</svg>
