<svg width="299" height="59" viewBox="0 0 299 59" fill="none" xmlns="http://www.w3.org/2000/svg">
<path d="M94.0879 51.5635C92.9622 51.2399 92.1419 50.8434 91.627 50.374C91.1165 49.9001 90.8613 49.3167 90.8613 48.624C90.8613 47.8402 91.1735 47.193 91.7979 46.6826C92.4268 46.1676 93.2425 45.9102 94.2451 45.9102C94.9287 45.9102 95.5371 46.0423 96.0703 46.3066C96.6081 46.571 97.0228 46.9355 97.3145 47.4004C97.6107 47.8652 97.7588 48.3734 97.7588 48.9248H96.4395C96.4395 48.3232 96.248 47.8516 95.8652 47.5098C95.4824 47.1634 94.9424 46.9902 94.2451 46.9902C93.598 46.9902 93.0921 47.1338 92.7275 47.4209C92.3675 47.7035 92.1875 48.0977 92.1875 48.6035C92.1875 49.0091 92.3584 49.3532 92.7002 49.6357C93.0465 49.9137 93.6322 50.1689 94.457 50.4014C95.2865 50.6338 95.9336 50.8913 96.3984 51.1738C96.8678 51.4518 97.2142 51.7777 97.4375 52.1514C97.6654 52.5251 97.7793 52.9648 97.7793 53.4707C97.7793 54.2773 97.4648 54.9245 96.8359 55.4121C96.207 55.8952 95.3662 56.1367 94.3135 56.1367C93.6299 56.1367 92.9919 56.0068 92.3994 55.7471C91.807 55.4827 91.349 55.1227 91.0254 54.667C90.7064 54.2113 90.5469 53.694 90.5469 53.1152H91.8662C91.8662 53.7168 92.0872 54.193 92.5293 54.5439C92.9759 54.8903 93.5706 55.0635 94.3135 55.0635C95.0062 55.0635 95.5371 54.9222 95.9062 54.6396C96.2754 54.3571 96.46 53.972 96.46 53.4844C96.46 52.9967 96.2891 52.6208 95.9473 52.3564C95.6055 52.0876 94.9857 51.8232 94.0879 51.5635ZM100.985 46.8125V48.6035H102.366V49.5811H100.985V54.168C100.985 54.4642 101.047 54.6875 101.17 54.8379C101.293 54.9837 101.503 55.0566 101.799 55.0566C101.945 55.0566 102.145 55.0293 102.4 54.9746V56C102.068 56.0911 101.744 56.1367 101.43 56.1367C100.865 56.1367 100.438 55.9658 100.151 55.624C99.8643 55.2822 99.7207 54.7969 99.7207 54.168V49.5811H98.374V48.6035H99.7207V46.8125H100.985ZM106.919 56.1367C105.916 56.1367 105.101 55.8086 104.472 55.1523C103.843 54.4915 103.528 53.6097 103.528 52.5068V52.2744C103.528 51.5407 103.667 50.8867 103.945 50.3125C104.228 49.7337 104.62 49.2826 105.121 48.959C105.627 48.6309 106.174 48.4668 106.762 48.4668C107.723 48.4668 108.471 48.7835 109.004 49.417C109.537 50.0505 109.804 50.9574 109.804 52.1377V52.6641H104.793C104.811 53.3932 105.023 53.9834 105.429 54.4346C105.839 54.8812 106.358 55.1045 106.987 55.1045C107.434 55.1045 107.812 55.0133 108.122 54.8311C108.432 54.6488 108.703 54.4072 108.936 54.1064L109.708 54.708C109.088 55.6605 108.159 56.1367 106.919 56.1367ZM106.762 49.5059C106.251 49.5059 105.823 49.6927 105.477 50.0664C105.13 50.4355 104.916 50.9551 104.834 51.625H108.539V51.5293C108.503 50.8867 108.329 50.39 108.02 50.0391C107.71 49.6836 107.29 49.5059 106.762 49.5059ZM117.521 52.3838C117.521 53.5094 117.264 54.4163 116.749 55.1045C116.234 55.7926 115.537 56.1367 114.657 56.1367C113.759 56.1367 113.053 55.8519 112.538 55.2822V58.8438H111.273V48.6035H112.429L112.49 49.4238C113.005 48.7858 113.721 48.4668 114.637 48.4668C115.525 48.4668 116.227 48.8018 116.742 49.4717C117.262 50.1416 117.521 51.0736 117.521 52.2676V52.3838ZM116.257 52.2402C116.257 51.4062 116.079 50.7477 115.724 50.2646C115.368 49.7816 114.881 49.54 114.261 49.54C113.495 49.54 112.921 49.8796 112.538 50.5586V54.0928C112.916 54.7673 113.495 55.1045 114.274 55.1045C114.881 55.1045 115.361 54.8652 115.717 54.3867C116.077 53.9036 116.257 53.1882 116.257 52.2402ZM128.999 56H122.478V55.0908L125.923 51.2627C126.433 50.6839 126.784 50.2145 126.976 49.8545C127.172 49.4899 127.27 49.1139 127.27 48.7266C127.27 48.207 127.112 47.7809 126.798 47.4482C126.483 47.1156 126.064 46.9492 125.54 46.9492C124.911 46.9492 124.421 47.1292 124.07 47.4893C123.724 47.8447 123.551 48.3415 123.551 48.9795H122.286C122.286 48.0635 122.58 47.3229 123.168 46.7578C123.76 46.1927 124.551 45.9102 125.54 45.9102C126.465 45.9102 127.197 46.154 127.734 46.6416C128.272 47.1247 128.541 47.7695 128.541 48.5762C128.541 49.556 127.917 50.7227 126.668 52.0762L124.002 54.9678H128.999V56Z" fill="#444444"/>
<line x1="127.003" y1="16.5" x2="180.425" y2="16.8684" stroke="#E4E4E4"/>
<line x1="213.003" y1="16.5" x2="266.424" y2="16.8684" stroke="#E4E4E4"/>
<line x1="32.7891" y1="16.8684" x2="93.5785" y2="16.8684" stroke="#E4E4E4"/>
<circle cx="196.5" cy="16.5" r="15.5" stroke="#DEDEDE" stroke-width="2"/>
<circle cx="282.5" cy="16.5" r="15.5" stroke="#DEDEDE" stroke-width="2"/>
<circle cx="110.5" cy="16.5" r="15.5" stroke="black" stroke-width="2"/>
<circle cx="16.5" cy="16.5" r="16.5" fill="black"/>
<path d="M21.4853 11.4363C21.7592 11.1597 22.1315 11.0029 22.5208 11C22.9101 10.9972 23.2847 11.1485 23.5627 11.421C23.8407 11.6935 23.9996 12.0649 24.0045 12.4542C24.0095 12.8434 23.8602 13.2188 23.5893 13.4983L15.7493 23.2993C15.6146 23.4443 15.452 23.5607 15.2714 23.6415C15.0907 23.7223 14.8956 23.7659 14.6978 23.7696C14.4999 23.7733 14.3033 23.7372 14.1197 23.6632C13.9361 23.5893 13.7693 23.4791 13.6293 23.3393L8.43126 18.1433C8.15503 17.8669 7.99991 17.4922 8 17.1014C8.00009 16.7107 8.1554 16.336 8.43176 16.0598C8.70811 15.7836 9.08288 15.6284 9.47361 15.6285C9.86434 15.6286 10.239 15.7839 10.5153 16.0603L14.6263 20.1723L21.4463 11.4823C21.4586 11.4665 21.472 11.4514 21.4863 11.4373L21.4853 11.4363Z" fill="white"/>
</svg>
