<svg width="299" height="59" viewBox="0 0 299 59" fill="none" xmlns="http://www.w3.org/2000/svg">
<path d="M179.088 51.5635C177.962 51.2399 177.142 50.8434 176.627 50.374C176.117 49.9001 175.861 49.3167 175.861 48.624C175.861 47.8402 176.174 47.193 176.798 46.6826C177.427 46.1676 178.243 45.9102 179.245 45.9102C179.929 45.9102 180.537 46.0423 181.07 46.3066C181.608 46.571 182.023 46.9355 182.314 47.4004C182.611 47.8652 182.759 48.3734 182.759 48.9248H181.439C181.439 48.3232 181.248 47.8516 180.865 47.5098C180.482 47.1634 179.942 46.9902 179.245 46.9902C178.598 46.9902 178.092 47.1338 177.728 47.4209C177.368 47.7035 177.188 48.0977 177.188 48.6035C177.188 49.0091 177.358 49.3532 177.7 49.6357C178.047 49.9137 178.632 50.1689 179.457 50.4014C180.286 50.6338 180.934 50.8913 181.398 51.1738C181.868 51.4518 182.214 51.7777 182.438 52.1514C182.665 52.5251 182.779 52.9648 182.779 53.4707C182.779 54.2773 182.465 54.9245 181.836 55.4121C181.207 55.8952 180.366 56.1367 179.313 56.1367C178.63 56.1367 177.992 56.0068 177.399 55.7471C176.807 55.4827 176.349 55.1227 176.025 54.667C175.706 54.2113 175.547 53.694 175.547 53.1152H176.866C176.866 53.7168 177.087 54.193 177.529 54.5439C177.976 54.8903 178.571 55.0635 179.313 55.0635C180.006 55.0635 180.537 54.9222 180.906 54.6396C181.275 54.3571 181.46 53.972 181.46 53.4844C181.46 52.9967 181.289 52.6208 180.947 52.3564C180.605 52.0876 179.986 51.8232 179.088 51.5635ZM185.985 46.8125V48.6035H187.366V49.5811H185.985V54.168C185.985 54.4642 186.047 54.6875 186.17 54.8379C186.293 54.9837 186.503 55.0566 186.799 55.0566C186.945 55.0566 187.145 55.0293 187.4 54.9746V56C187.068 56.0911 186.744 56.1367 186.43 56.1367C185.865 56.1367 185.438 55.9658 185.151 55.624C184.864 55.2822 184.721 54.7969 184.721 54.168V49.5811H183.374V48.6035H184.721V46.8125H185.985ZM191.919 56.1367C190.916 56.1367 190.101 55.8086 189.472 55.1523C188.843 54.4915 188.528 53.6097 188.528 52.5068V52.2744C188.528 51.5407 188.667 50.8867 188.945 50.3125C189.228 49.7337 189.62 49.2826 190.121 48.959C190.627 48.6309 191.174 48.4668 191.762 48.4668C192.723 48.4668 193.471 48.7835 194.004 49.417C194.537 50.0505 194.804 50.9574 194.804 52.1377V52.6641H189.793C189.811 53.3932 190.023 53.9834 190.429 54.4346C190.839 54.8812 191.358 55.1045 191.987 55.1045C192.434 55.1045 192.812 55.0133 193.122 54.8311C193.432 54.6488 193.703 54.4072 193.936 54.1064L194.708 54.708C194.088 55.6605 193.159 56.1367 191.919 56.1367ZM191.762 49.5059C191.251 49.5059 190.823 49.6927 190.477 50.0664C190.13 50.4355 189.916 50.9551 189.834 51.625H193.539V51.5293C193.503 50.8867 193.329 50.39 193.02 50.0391C192.71 49.6836 192.29 49.5059 191.762 49.5059ZM202.521 52.3838C202.521 53.5094 202.264 54.4163 201.749 55.1045C201.234 55.7926 200.537 56.1367 199.657 56.1367C198.759 56.1367 198.053 55.8519 197.538 55.2822V58.8438H196.273V48.6035H197.429L197.49 49.4238C198.005 48.7858 198.721 48.4668 199.637 48.4668C200.525 48.4668 201.227 48.8018 201.742 49.4717C202.262 50.1416 202.521 51.0736 202.521 52.2676V52.3838ZM201.257 52.2402C201.257 51.4062 201.079 50.7477 200.724 50.2646C200.368 49.7816 199.881 49.54 199.261 49.54C198.495 49.54 197.921 49.8796 197.538 50.5586V54.0928C197.916 54.7673 198.495 55.1045 199.274 55.1045C199.881 55.1045 200.361 54.8652 200.717 54.3867C201.077 53.9036 201.257 53.1882 201.257 52.2402ZM209.316 50.4082H210.267C210.864 50.3991 211.333 50.2419 211.675 49.9365C212.017 49.6312 212.188 49.2188 212.188 48.6992C212.188 47.5326 211.606 46.9492 210.444 46.9492C209.897 46.9492 209.46 47.1064 209.132 47.4209C208.808 47.7308 208.646 48.1432 208.646 48.6582H207.382C207.382 47.8698 207.669 47.2158 208.243 46.6963C208.822 46.1722 209.556 45.9102 210.444 45.9102C211.383 45.9102 212.119 46.1585 212.652 46.6553C213.186 47.152 213.452 47.8424 213.452 48.7266C213.452 49.1595 213.311 49.5788 213.028 49.9844C212.75 50.39 212.37 50.693 211.887 50.8936C212.434 51.0667 212.855 51.3538 213.151 51.7549C213.452 52.1559 213.603 52.6458 213.603 53.2246C213.603 54.1178 213.311 54.8265 212.728 55.3506C212.144 55.8747 211.385 56.1367 210.451 56.1367C209.517 56.1367 208.756 55.8838 208.168 55.3779C207.585 54.8721 207.293 54.2044 207.293 53.375H208.564C208.564 53.8991 208.735 54.3184 209.077 54.6328C209.419 54.9473 209.877 55.1045 210.451 55.1045C211.062 55.1045 211.529 54.945 211.853 54.626C212.176 54.307 212.338 53.849 212.338 53.252C212.338 52.6732 212.16 52.2288 211.805 51.9189C211.449 51.609 210.937 51.4495 210.267 51.4404H209.316V50.4082Z" fill="#444444"/>
<line x1="119.632" y1="16.8684" x2="180.421" y2="16.8684" stroke="#E4E4E4"/>
<line x1="32.7891" y1="16.8684" x2="93.5785" y2="16.8684" stroke="#E4E4E4"/>
<circle cx="196.5" cy="16.5" r="15.5" stroke="black" stroke-width="2"/>
<circle cx="110.5" cy="16.5" r="16.5" fill="black"/>
<circle cx="16.5" cy="16.5" r="16.5" fill="black"/>
<path d="M115.485 11.4363C115.759 11.1597 116.132 11.0029 116.521 11C116.91 10.9972 117.285 11.1485 117.563 11.421C117.841 11.6935 118 12.0649 118.005 12.4542C118.01 12.8434 117.86 13.2188 117.589 13.4983L109.749 23.2993C109.615 23.4443 109.452 23.5607 109.271 23.6415C109.091 23.7223 108.896 23.7659 108.698 23.7696C108.5 23.7733 108.303 23.7372 108.12 23.6632C107.936 23.5893 107.769 23.4791 107.629 23.3393L102.431 18.1433C102.155 17.8669 102 17.4922 102 17.1014C102 16.7107 102.155 16.336 102.432 16.0598C102.708 15.7836 103.083 15.6284 103.474 15.6285C103.864 15.6286 104.239 15.7839 104.515 16.0603L108.626 20.1723L115.446 11.4823C115.459 11.4665 115.472 11.4514 115.486 11.4373L115.485 11.4363Z" fill="white"/>
<path d="M21.4853 11.4363C21.7592 11.1597 22.1315 11.0029 22.5208 11C22.9101 10.9972 23.2847 11.1485 23.5627 11.421C23.8407 11.6935 23.9996 12.0649 24.0045 12.4542C24.0095 12.8434 23.8602 13.2188 23.5893 13.4983L15.7493 23.2993C15.6146 23.4443 15.452 23.5607 15.2714 23.6415C15.0907 23.7223 14.8956 23.7659 14.6978 23.7696C14.4999 23.7733 14.3033 23.7372 14.1197 23.6632C13.9361 23.5893 13.7693 23.4791 13.6293 23.3393L8.43126 18.1433C8.15503 17.8669 7.99991 17.4922 8 17.1014C8.00009 16.7107 8.1554 16.336 8.43176 16.0598C8.70811 15.7836 9.08288 15.6284 9.47361 15.6285C9.86434 15.6286 10.239 15.7839 10.5153 16.0603L14.6263 20.1723L21.4463 11.4823C21.4586 11.4665 21.472 11.4514 21.4863 11.4373L21.4853 11.4363Z" fill="white"/>
<line x1="213.003" y1="16.5" x2="266.424" y2="16.8684" stroke="#E4E4E4"/>
<circle cx="282.5" cy="16.5" r="15.5" stroke="#DEDEDE" stroke-width="2"/>
</svg>
