<svg width="295" height="59" viewBox="0 0 295 59" fill="none" xmlns="http://www.w3.org/2000/svg">
<line x1="122.632" y1="16.8684" x2="183.421" y2="16.8684" stroke="#E4E4E4"/>
<line x1="202.632" y1="16.8684" x2="263.421" y2="16.8684" stroke="#E4E4E4"/>
<line x1="35.7896" y1="16.8684" x2="96.579" y2="16.8684" stroke="#E4E4E4"/>
<circle cx="111.342" cy="16.5" r="16" fill="white" stroke="#DEDEDE"/>
<circle cx="19.5" cy="16.5" r="15.5" stroke="#464646" stroke-width="2"/>
<circle cx="198.184" cy="16.5" r="16" fill="white" stroke="#DEDEDE"/>
<circle cx="278.184" cy="16.5" r="16" fill="white" stroke="#DEDEDE"/>
<path d="M4.08789 51.5635C2.96224 51.2399 2.14193 50.8434 1.62695 50.374C1.11654 49.9001 0.861328 49.3167 0.861328 48.624C0.861328 47.8402 1.1735 47.193 1.79785 46.6826C2.42676 46.1676 3.24251 45.9102 4.24512 45.9102C4.92871 45.9102 5.53711 46.0423 6.07031 46.3066C6.60807 46.571 7.02279 46.9355 7.31445 47.4004C7.61068 47.8652 7.75879 48.3734 7.75879 48.9248H6.43945C6.43945 48.3232 6.24805 47.8516 5.86523 47.5098C5.48242 47.1634 4.94238 46.9902 4.24512 46.9902C3.59798 46.9902 3.09212 47.1338 2.72754 47.4209C2.36751 47.7035 2.1875 48.0977 2.1875 48.6035C2.1875 49.0091 2.3584 49.3532 2.7002 49.6357C3.04655 49.9137 3.63216 50.1689 4.45703 50.4014C5.28646 50.6338 5.93359 50.8913 6.39844 51.1738C6.86784 51.4518 7.21419 51.7777 7.4375 52.1514C7.66536 52.5251 7.7793 52.9648 7.7793 53.4707C7.7793 54.2773 7.46484 54.9245 6.83594 55.4121C6.20703 55.8952 5.36621 56.1367 4.31348 56.1367C3.62988 56.1367 2.99186 56.0068 2.39941 55.7471C1.80697 55.4827 1.34896 55.1227 1.02539 54.667C0.70638 54.2113 0.546875 53.694 0.546875 53.1152H1.86621C1.86621 53.7168 2.08724 54.193 2.5293 54.5439C2.97591 54.8903 3.57064 55.0635 4.31348 55.0635C5.00618 55.0635 5.53711 54.9222 5.90625 54.6396C6.27539 54.3571 6.45996 53.972 6.45996 53.4844C6.45996 52.9967 6.28906 52.6208 5.94727 52.3564C5.60547 52.0876 4.98568 51.8232 4.08789 51.5635ZM10.9854 46.8125V48.6035H12.3662V49.5811H10.9854V54.168C10.9854 54.4642 11.0469 54.6875 11.1699 54.8379C11.293 54.9837 11.5026 55.0566 11.7988 55.0566C11.9447 55.0566 12.1452 55.0293 12.4004 54.9746V56C12.0677 56.0911 11.7441 56.1367 11.4297 56.1367C10.8646 56.1367 10.4385 55.9658 10.1514 55.624C9.86426 55.2822 9.7207 54.7969 9.7207 54.168V49.5811H8.37402V48.6035H9.7207V46.8125H10.9854ZM16.9189 56.1367C15.9163 56.1367 15.1006 55.8086 14.4717 55.1523C13.8428 54.4915 13.5283 53.6097 13.5283 52.5068V52.2744C13.5283 51.5407 13.6673 50.8867 13.9453 50.3125C14.2279 49.7337 14.6198 49.2826 15.1211 48.959C15.627 48.6309 16.1738 48.4668 16.7617 48.4668C17.7233 48.4668 18.4707 48.7835 19.0039 49.417C19.5371 50.0505 19.8037 50.9574 19.8037 52.1377V52.6641H14.793C14.8112 53.3932 15.0231 53.9834 15.4287 54.4346C15.8389 54.8812 16.3584 55.1045 16.9873 55.1045C17.4339 55.1045 17.8122 55.0133 18.1221 54.8311C18.432 54.6488 18.7031 54.4072 18.9355 54.1064L19.708 54.708C19.0882 55.6605 18.1585 56.1367 16.9189 56.1367ZM16.7617 49.5059C16.2513 49.5059 15.8229 49.6927 15.4766 50.0664C15.1302 50.4355 14.916 50.9551 14.834 51.625H18.5391V51.5293C18.5026 50.8867 18.3294 50.39 18.0195 50.0391C17.7096 49.6836 17.2904 49.5059 16.7617 49.5059ZM27.5215 52.3838C27.5215 53.5094 27.264 54.4163 26.749 55.1045C26.234 55.7926 25.5368 56.1367 24.6572 56.1367C23.7594 56.1367 23.0531 55.8519 22.5381 55.2822V58.8438H21.2734V48.6035H22.4287L22.4902 49.4238C23.0052 48.7858 23.7207 48.4668 24.6367 48.4668C25.5254 48.4668 26.2272 48.8018 26.7422 49.4717C27.2617 50.1416 27.5215 51.0736 27.5215 52.2676V52.3838ZM26.2568 52.2402C26.2568 51.4062 26.0791 50.7477 25.7236 50.2646C25.3682 49.7816 24.8805 49.54 24.2607 49.54C23.4951 49.54 22.9209 49.8796 22.5381 50.5586V54.0928C22.9163 54.7673 23.4951 55.1045 24.2744 55.1045C24.8805 55.1045 25.3613 54.8652 25.7168 54.3867C26.0768 53.9036 26.2568 53.1882 26.2568 52.2402ZM36.6338 56H35.3623V47.5713L32.8125 48.5078V47.3594L36.4355 45.999H36.6338V56Z" fill="#444444"/>
</svg>
