<svg width="20" height="18" viewBox="0 0 20 18" fill="none" xmlns="http://www.w3.org/2000/svg">
<path d="M8.00023 11H12.0002V5H15.0002L10.0002 0L5.00023 5H8.00023V11ZM19.3382 12.532C19.1282 12.308 17.7272 10.809 17.3272 10.418C17.0469 10.1493 16.6735 9.99951 16.2852 10H14.5282L17.5922 12.994H14.0482C14.0001 12.9931 13.9525 13.0049 13.9104 13.0283C13.8682 13.0516 13.833 13.0857 13.8082 13.127L12.9922 15H7.00822L6.19222 13.127C6.16729 13.0858 6.13202 13.0519 6.08992 13.0286C6.04782 13.0052 6.00035 12.9933 5.95223 12.994H2.40823L5.47123 10H3.71522C3.31822 10 2.93923 10.159 2.67323 10.418C2.27323 10.81 0.872225 12.309 0.662225 12.532C0.173225 13.053 -0.0957749 13.468 0.0322251 13.981L0.593225 17.055C0.721225 17.569 1.28423 17.991 1.84523 17.991H18.1572C18.7182 17.991 19.2812 17.569 19.4092 17.055L19.9702 13.981C20.0962 13.468 19.8282 13.053 19.3382 12.532Z" fill="black"/>
</svg>
