<?xml version="1.0" standalone="no"?>
<!DOCTYPE svg PUBLIC "-//W3C//DTD SVG 20010904//EN"
 "http://www.w3.org/TR/2001/REC-SVG-20010904/DTD/svg10.dtd">
<svg version="1.0" xmlns="http://www.w3.org/2000/svg"
 width="401.000000pt" height="401.000000pt" viewBox="0 0 401.000000 401.000000"
 preserveAspectRatio="xMidYMid meet">

<g transform="translate(0.000000,401.000000) scale(0.100000,-0.100000)"
fill="#000000" stroke="none">
<path d="M1715 3215 c-184 -41 -353 -144 -472 -287 -55 -66 -135 -230 -159
-323 -26 -101 -23 -284 5 -390 62 -230 218 -430 416 -530 79 -40 795 -289 804
-279 3 3 6 42 6 87 0 89 -11 120 -67 182 -43 50 -68 61 -353 159 -136 47 -269
98 -294 113 -25 14 -73 54 -106 87 -138 140 -190 355 -131 541 31 96 71 159
152 235 131 122 303 174 463 139 28 -6 227 -71 442 -145 216 -74 395 -132 398
-128 3 3 6 42 6 87 0 59 -5 91 -18 114 -27 50 -76 102 -116 122 -51 26 -553
197 -631 216 -80 18 -261 18 -345 0z"/>
<path d="M1706 2595 c-10 -27 -7 -130 6 -166 18 -53 56 -105 97 -133 21 -15
150 -65 287 -112 279 -96 340 -124 409 -192 229 -223 231 -572 6 -784 -142
-134 -324 -187 -492 -144 -30 8 -225 73 -434 145 -278 95 -381 127 -387 118
-17 -27 -8 -146 14 -194 24 -51 73 -105 116 -127 15 -7 164 -60 332 -117 l305
-104 165 0 c158 1 169 2 258 32 135 45 222 100 332 212 81 81 103 111 143 191
64 131 87 226 87 364 -1 246 -75 424 -249 596 -72 72 -116 105 -176 137 -44
23 -237 95 -430 161 -192 67 -357 123 -366 127 -10 4 -19 0 -23 -10z"/>
</g>
</svg>
